<svg width="168" height="266" viewBox="0 0 168 266" fill="none" xmlns="http://www.w3.org/2000/svg">
<path d="M84.5 119H63.5C63.5 119 63.8937 151.288 57.5 170.5C54.4637 179.624 52.8317 184.998 47.5 193C42.8242 200.017 33 209 33 209H84.5V119Z" fill="#61747A"/>
<path d="M84 119H105C105 119 104.606 151.288 111 170.5C114.036 179.624 115.668 184.998 121 193C125.676 200.017 135.5 209 135.5 209H84V119Z" fill="#06323C"/>
<path d="M84 91H119C123.971 91 128 95.0294 128 100V100C128 104.971 123.971 109 119 109H84V91Z" fill="#DEC4B8"/>
<path d="M84 91H49C44.0294 91 40 95.0294 40 100V100C40 104.971 44.0294 109 49 109H84V91Z" fill="#F9F6EC"/>
<path d="M84 82H108.5C110.985 82 113 84.0147 113 86.5V86.5C113 88.9853 110.985 91 108.5 91H84V82Z" fill="#063034"/>
<path d="M84 82H59.5C57.0147 82 55 84.0147 55 86.5V86.5C55 88.9853 57.0147 91 59.5 91H84V82Z" fill="#284B55"/>
<path d="M84 109H105C107.761 109 110 111.239 110 114V114C110 116.761 107.761 119 105 119H84V109Z" fill="#06323C"/>
<path d="M84 109H63C60.2386 109 58 111.239 58 114V114C58 116.761 60.2386 119 63 119H84V109Z" fill="#06323C"/>
<path d="M33 210H136" stroke="url(#paint0_linear_1_55)" stroke-width="2"/>
<path d="M84 211H137C142.523 211 147 215.477 147 221V224C147 229.523 142.523 234 137 234H84V211Z" fill="#06323C"/>
<path d="M84 211H31C25.4771 211 21 215.477 21 221V224C21 229.523 25.4771 234 31 234H84V211Z" fill="#6A8793"/>
<path d="M84 233H151.5C160.613 233 168 240.387 168 249.5V249.5C168 258.613 160.613 266 151.5 266H84V233Z" fill="#06323C"/>
<path d="M84 233H16.5C7.38731 233 1.43051e-06 240.387 1.43051e-06 249.5V249.5C1.43051e-06 258.613 7.3873 266 16.5 266H84V233Z" fill="#6A8793"/>
<path d="M24 232L144 232" stroke="url(#paint1_linear_1_55)" stroke-width="2"/>
<path d="M35 36H86H133" stroke="url(#paint2_linear_1_55)" stroke-width="2"/>
<path d="M35 36H84V82H55C55 82 51.6542 67.6486 48 59C43.9844 49.496 35 36 35 36Z" fill="#FFF9EB"/>
<path d="M133 36H84V82H113C113 82 116.346 67.6486 120 59C124.016 49.496 133 36 133 36Z" fill="#E5C6BC"/>
<path d="M56 27C56 25.3431 57.3431 24 59 24H84V35H56V27Z" fill="#FEFCF2"/>
<path d="M84 24H108C110.209 24 112 25.7909 112 28V35H84V24Z" fill="#EDD5C8"/>
<path d="M84 6.5V13C79.0294 13 75 10.0899 75 6.5C75 2.91015 79.0294 0 84 0V6.5Z" fill="#FDF4E4"/>
<path d="M84 6.5V13C88.9706 13 93 10.0899 93 6.5C93 2.91015 88.9706 0 84 0V6.5Z" fill="#F0DACE"/>
<rect x="76" y="9" width="8" height="15" fill="#FDF4E4"/>
<ellipse cx="75.1785" cy="14.1785" rx="6.22792" ry="5.33822" transform="rotate(45 75.1785 14.1785)" fill="#FDF4E4"/>
<rect width="8" height="15" transform="matrix(-1 0 0 1 92 9)" fill="#F0DACE"/>
<ellipse cx="6.22792" cy="5.33822" rx="6.22792" ry="5.33822" transform="matrix(-0.707107 0.707107 0.707107 0.707107 93.4506 6)" fill="#F0DACE"/>
<defs>
<linearGradient id="paint0_linear_1_55" x1="33" y1="210.5" x2="136" y2="210.5" gradientUnits="userSpaceOnUse">
<stop stop-color="#FFF9EB"/>
<stop offset="1" stop-color="#E5C6BC"/>
</linearGradient>
<linearGradient id="paint1_linear_1_55" x1="24" y1="232.5" x2="144" y2="232.5" gradientUnits="userSpaceOnUse">
<stop stop-color="#FFF9EB"/>
<stop offset="1" stop-color="#E5C6BC"/>
</linearGradient>
<linearGradient id="paint2_linear_1_55" x1="35" y1="36.5" x2="133" y2="36.5" gradientUnits="userSpaceOnUse">
<stop stop-color="#FFF9EB"/>
<stop offset="1" stop-color="#E5C6BC"/>
</linearGradient>
</defs>
</svg>
